<svg xmlns="http://www.w3.org/2000/svg" width="100%" height="100%" viewBox="0 0 640 640" version="1.1">
	<path d="M 163 107.369 C 149.587 110.299, 137.815 119.835, 131.715 132.712 L 128.500 139.500 128.286 277 L 128.072 414.500 135.316 400 C 147.700 375.214, 160.949 356.773, 179.431 338.598 C 189.610 328.588, 205.406 315.384, 212.300 311.124 L 216.054 308.803 215.777 224.099 L 215.500 139.394 211.812 131.947 C 205.251 118.698, 193.518 109.653, 179.566 107.090 C 172.399 105.773, 170.130 105.812, 163 107.369 M 459 107.311 C 445.969 110.296, 434.358 119.443, 428.478 131.355 C 425.358 137.678, 424.837 139.881, 423.953 150.500 C 422.787 164.521, 421.788 170.233, 418.358 182.500 C 415.458 192.874, 407.067 210.205, 400.276 219.850 C 393.191 229.913, 375.849 246.661, 365.047 253.873 C 349.773 264.070, 342.118 267.599, 306.500 280.857 C 228.781 309.786, 177.636 350.731, 149.160 406.814 C 135.332 434.049, 128.594 460.077, 128.533 486.500 L 128.500 500.500 132.191 508.049 C 148.513 541.433, 195.157 541.764, 211.542 508.613 C 214.756 502.109, 215.219 500.072, 216.479 486.889 C 219.094 459.547, 226.254 439.535, 240.761 419.024 C 248.086 408.669, 263.251 394.280, 275.404 386.155 C 290.081 376.343, 300.056 371.500, 322 363.531 C 377.935 343.219, 413.190 323.174, 446.222 292.901 C 483.986 258.291, 509.880 204.922, 511.734 157.875 C 512.209 145.810, 512.025 143.463, 510.126 137.375 C 503.456 115.988, 480.372 102.414, 459 107.311 M 506.842 235.892 C 496.004 259.320, 480.203 281.897, 462.023 299.930 C 450.878 310.984, 437.053 322.664, 428.228 328.479 L 423.956 331.295 424.228 415.919 L 424.500 500.544 427.800 507.246 C 444.726 541.624, 490.954 542.174, 507.747 508.197 L 511.500 500.605 511.766 395.052 C 511.912 336.999, 511.912 275.172, 511.766 257.661 L 511.500 225.822 506.842 235.892" stroke="none" fill="#0668E1" fill-rule="evenodd"/>
</svg>